<?xml version="1.0" encoding="utf-8"?>
<!-- Generator: Adobe Illustrator 24.1.0, SVG Export Plug-In . SVG Version: 6.00 Build 0)  -->
<svg version="1.1" id="Capa_1" xmlns="http://www.w3.org/2000/svg" xmlns:xlink="http://www.w3.org/1999/xlink" x="0px" y="0px"
	 viewBox="0 0 59 59" style="enable-background:new 0 0 59 59;" xml:space="preserve">
<style type="text/css">
	.st0{fill:#FFFFFF;}
	.st1{fill:#0A0A0A;}
	.st2{fill:#FF6C5A;}
	.st3{fill:#42B54C;}
	.st4{fill:#FFFFFF;stroke:#FFFFFF;stroke-width:0.5;stroke-miterlimit:10;}
	.st5{font-family:'Poppins-Light';}
	.st6{font-size:9.2897px;}
	.st7{fill:#0A0A0A;stroke:#0A0A0A;stroke-width:0.5;stroke-miterlimit:10;}
	.st8{font-family:'Poppins-ExtraLight';}
	.st9{font-size:4.4931px;}
</style>
<g>
	<g>
		<circle class="st0" cx="22" cy="48" r="5"/>
		<path class="st1" d="M22,54c-3.3,0-6-2.7-6-6s2.7-6,6-6s6,2.7,6,6S25.3,54,22,54z M22,44c-2.2,0-4,1.8-4,4s1.8,4,4,4s4-1.8,4-4
			S24.2,44,22,44z"/>
	</g>
	<g>
		<circle class="st0" cx="45" cy="48" r="5"/>
		<path class="st1" d="M45,54c-3.3,0-6-2.7-6-6s2.7-6,6-6s6,2.7,6,6S48.3,54,45,54z M45,44c-2.2,0-4,1.8-4,4s1.8,4,4,4s4-1.8,4-4
			S47.2,44,45,44z"/>
	</g>
	<path class="st1" d="M55,48h-5.1c-0.6,0-1-0.4-1-1s0.4-1,1-1H55c0.6,0,1,0.4,1,1S55.6,48,55,48z"/>
	<path class="st1" d="M40.1,48H26.9c-0.6,0-1-0.4-1-1s0.4-1,1-1h13.2c0.6,0,1,0.4,1,1S40.7,48,40.1,48z"/>
	<g>
		<path class="st2" d="M15,39L9.8,13H58v22c0,2.2-1.8,4-4,4H15"/>
		<path class="st1" d="M54,40H14.2L8.6,12H59v23C59,37.8,56.8,40,54,40z M15.8,38H54c1.6,0,3-1.3,3-3V14H11.1L15.8,38z"/>
	</g>
	<path class="st1" d="M9.8,14c-0.5,0-0.9-0.3-1-0.8L8.2,9H6C5.4,9,5,8.6,5,8s0.4-1,1-1h3.8l1,5.8c0.1,0.5-0.3,1.1-0.8,1.1
		C9.9,14,9.9,14,9.8,14z"/>
	<circle class="st3" cx="3" cy="8" r="3"/>
	<path class="st1" d="M17.1,48H14c-1.4,0-2.8-0.6-3.7-1.7c-0.9-1-1.4-2.5-1.3-3.9C9.3,40,11.5,38,14.2,38c0.6,0,1,0.4,1,1
		s-0.4,1-1,1c-1.6,0-3,1.2-3.2,2.7c-0.1,0.9,0.2,1.7,0.8,2.3c0.6,0.6,1.4,1,2.2,1h3.1c0.6,0,1,0.4,1,1S17.7,48,17.1,48z"/>
</g>
<text transform="matrix(1 0 0 1 18.3594 28.144)"><tspan x="0" y="0" class="st4 st5 st6">O</tspan><tspan x="7.3" y="0" class="st7 st5 st6">pe</tspan><tspan x="19.4" y="0" class="st4 st5 st6">b</tspan><tspan x="25.7" y="0" class="st7 st5 st6">o</tspan></text>
<text transform="matrix(1 0 0 1 40 32.4619)" class="st0 st8 st9">cart</text>
</svg>
